<svg xmlns="http://www.w3.org/2000/svg" viewBox="0 0 400 42.85"><defs><style>.cls-1{fill:#434343;}.cls-2{fill:#781f41;}.cls-3{fill:#9d9d9d;}</style></defs><g id="Layer_2" data-name="Layer 2"><g id="Layer_1-2" data-name="Layer 1"><path class="cls-1" d="M0,.76H27.18V8.4H8.46V18.73H23.8v7.64H8.46V42.09H0Z"/><path class="cls-1" d="M30,.76h8.45V42.1H30Z"/><path class="cls-1" d="M67.06,42.1,58.29,28.38,49.52,42.1H39.87l13.72-21L40.69.76h9.64l8,13,7.89-13h9.58L63.05,21.05,76.64,42.1Z"/><path class="cls-1" d="M80.36,29.32c2.69,3.69,5.63,6,10.15,6,3.69,0,5.89-1.75,5.89-4.57,0-2.45-1.32-3.32-5.26-5.14l-4.45-2c-6.33-2.82-10-6.39-10-11.91C76.67,4.64,82.56,0,90.38,0,96.71,0,101.47,3.07,104,7.83l-5.76,4.45c-2.13-3.19-4.76-4.76-7.9-4.76-2.94,0-5.13,1.44-5.13,4,0,2.19,1.31,3.2,4.82,4.76l4.7,2.07c7,3.07,10.21,6.51,10.21,12.08,0,7.58-6.2,12.4-14.47,12.4a18,18,0,0,1-16-9.14Z"/><path class="cls-1" d="M109.22.76H137V8.4H117.67v8.39h14.22V24H117.67V34.45h20.11v7.64H109.22V.76Z"/><path class="cls-1" d="M142.1.76h8.46V34.45h18.1v7.64H142.11V.76Z"/><path class="cls-1" d="M170.5.76H179V34.45h18.1v7.64H170.51V.76Z"/><path class="cls-1" d="M251.43.76V42.85h-2.82L224.68,17.29V42.1h-8.45V0H219l24,25.43V.76Z"/><path class="cls-2" d="M277.28,0c11.91-.24,22.24,9.59,22.05,21.43.19,11.83-10.14,21.67-22.05,21.42-11.9.25-22.11-9.59-21.92-21.42C255.17,9.59,265.38-.24,277.28,0Zm.07,7.83c-7.64,0-13.28,5.64-13.28,13.6S269.7,35,277.35,35s13.28-5.64,13.28-13.59S284.92,7.83,277.35,7.83Z"/><path class="cls-1" d="M328.69,42.1,318,27.5h-6.21V42.1h-8.45V.76h15.53c8.64,0,14.91,5.38,14.91,13.34a12.79,12.79,0,0,1-7.27,11.77L338.21,42.1Zm-16.91-22h7.08c3.95,0,6.26-2.38,6.26-6s-2.44-5.89-6.26-5.89h-7.08Z"/><path class="cls-1" d="M348.13,8.4H334.91V.76h34.95V8.4H356.58V42.09h-8.45Z"/><path class="cls-1" d="M371.44.76h27.81V8.4H379.89v8.39h14.22V24H379.89V34.45H400v7.64H371.44Z"/><path class="cls-3" d="M183.42,20.74h4.2c3.69,0,6.63,2.38,6.58,6s-2.89,6.12-6.58,6.07h-4.2ZM187.61,30A3.12,3.12,0,0,0,191,26.73c0-2-1.39-3.14-3.37-3.14h-1V30h1Z"/><path class="cls-3" d="M195.81,20.74h8.37v2.83H199v1.67h3.72v2.63H199V30h5.44V32.8h-8.58V20.74Z"/><path class="cls-3" d="M206.17,20.74h3.14V30h5V32.8h-8.13V20.74Z"/></g></g></svg>